<svg xmlns="http://www.w3.org/2000/svg" width="32.668" height="31.306" viewBox="0 0 32.668 31.306">
  <path id="star_2_" data-name="star (2)" d="M7.312,31.8A1.739,1.739,0,0,1,5.62,29.675l2.1-9.258L.595,14.167a1.738,1.738,0,0,1,.984-3.038l9.43-.856,3.728-8.725a1.736,1.736,0,0,1,3.193,0l3.728,8.727,9.429.856a1.738,1.738,0,0,1,.987,3.038l-7.127,6.249,2.1,9.257a1.736,1.736,0,0,1-2.583,1.876L16.334,26.69,8.2,31.552a1.74,1.74,0,0,1-.89.247Zm9.022-7.2a1.74,1.74,0,0,1,.89.246l7.674,4.59L22.916,20.7A1.736,1.736,0,0,1,23.466,19l6.73-5.9-8.9-.809a1.734,1.734,0,0,1-1.443-1.052L16.334,3.007l-3.519,8.235a1.729,1.729,0,0,1-1.439,1.048l-8.9.809L9.2,19a1.733,1.733,0,0,1,.55,1.693L7.77,29.431l7.674-4.589a1.74,1.74,0,0,1,.89-.246Zm-5.4-14.155a0,0,0,0,1,0,0Zm10.791,0v0S21.73,10.439,21.729,10.437Zm0,0" transform="translate(-0.001 -0.492)" fill="#ffc107"/>
</svg>
