<svg xmlns="http://www.w3.org/2000/svg" width="32.668" height="31.306" viewBox="0 0 32.668 31.306">
  <path id="star_1_" data-name="star (1)" d="M32.583,12.322a1.733,1.733,0,0,0-1.495-1.194l-9.429-.856L17.931,1.545a1.736,1.736,0,0,0-3.193,0l-3.728,8.725-9.43.856a1.738,1.738,0,0,0-.986,3.038l7.127,6.25-2.1,9.258A1.734,1.734,0,0,0,8.2,31.55l8.133-4.861,8.13,4.861a1.736,1.736,0,0,0,2.584-1.876l-2.1-9.258,7.127-6.249a1.737,1.737,0,0,0,.509-1.846Zm0,0" transform="translate(0 -0.491)" fill="#ffc107"/>
</svg>
